<mxfile host="65bd71144e">
    <diagram id="u-X-ZOIHLDI-9kcCiRc5" name="ページ1">
        <mxGraphModel dx="1386" dy="950" grid="1" gridSize="10" guides="1" tooltips="1" connect="1" arrows="1" fold="1" page="1" pageScale="1" pageWidth="800" pageHeight="96" math="0" shadow="0">
            <root>
                <mxCell id="0"/>
                <mxCell id="1" parent="0"/>
                <mxCell id="2" value="" style="rounded=0;whiteSpace=wrap;html=1;" parent="1" vertex="1">
                    <mxGeometry x="40" y="41" width="720" height="599" as="geometry"/>
                </mxCell>
                <mxCell id="3" value="Navigation Bar" style="rounded=0;whiteSpace=wrap;html=1;" parent="1" vertex="1">
                    <mxGeometry x="40" y="41" width="720" height="79" as="geometry"/>
                </mxCell>
                <mxCell id="4" value="" style="rounded=0;whiteSpace=wrap;html=1;" parent="1" vertex="1">
                    <mxGeometry x="400" y="120" width="360" height="520" as="geometry"/>
                </mxCell>
                <mxCell id="5" value="" style="rounded=0;whiteSpace=wrap;html=1;" parent="1" vertex="1">
                    <mxGeometry x="40" y="120" width="360" height="520" as="geometry"/>
                </mxCell>
                <UserObject label="Fixed Area" placeholders="1" name="Variable" id="6">
                    <mxCell style="text;html=1;strokeColor=none;fillColor=none;align=center;verticalAlign=middle;whiteSpace=wrap;overflow=hidden;" parent="1" vertex="1">
                        <mxGeometry x="40" y="120" width="80" height="20" as="geometry"/>
                    </mxCell>
                </UserObject>
                <UserObject label="Relative Area" placeholders="1" name="Variable" id="7">
                    <mxCell style="text;html=1;strokeColor=none;fillColor=none;align=center;verticalAlign=middle;whiteSpace=wrap;overflow=hidden;" parent="1" vertex="1">
                        <mxGeometry x="400" y="120" width="80" height="20" as="geometry"/>
                    </mxCell>
                </UserObject>
                <mxCell id="8" value="Text Viewer" style="rounded=0;whiteSpace=wrap;html=1;" parent="1" vertex="1">
                    <mxGeometry x="440" y="160" width="280" height="480" as="geometry"/>
                </mxCell>
                <mxCell id="9" value="Send" style="rounded=0;whiteSpace=wrap;html=1;" parent="1" vertex="1">
                    <mxGeometry x="280" y="570" width="80" height="40" as="geometry"/>
                </mxCell>
                <mxCell id="10" value="Chat Input Area" style="rounded=0;whiteSpace=wrap;html=1;" parent="1" vertex="1">
                    <mxGeometry x="90" y="500" width="270" height="48" as="geometry"/>
                </mxCell>
                <mxCell id="11" value="" style="rounded=0;whiteSpace=wrap;html=1;" vertex="1" parent="1">
                    <mxGeometry x="40" y="720" width="360" height="120" as="geometry"/>
                </mxCell>
                <UserObject label="Chat Layout" placeholders="1" name="Variable" id="12">
                    <mxCell style="text;html=1;strokeColor=none;fillColor=none;align=center;verticalAlign=middle;whiteSpace=wrap;overflow=hidden;" vertex="1" parent="1">
                        <mxGeometry x="40" y="700" width="80" height="20" as="geometry"/>
                    </mxCell>
                </UserObject>
                <mxCell id="13" value="Delete" style="rounded=0;whiteSpace=wrap;html=1;" vertex="1" parent="1">
                    <mxGeometry x="340" y="755" width="40" height="45" as="geometry"/>
                </mxCell>
                <mxCell id="14" value="Chat Text" style="rounded=0;whiteSpace=wrap;html=1;" vertex="1" parent="1">
                    <mxGeometry x="70" y="768" width="240" height="52" as="geometry"/>
                </mxCell>
            </root>
        </mxGraphModel>
    </diagram>
</mxfile>